<svg width="1920" height="1031" viewBox="0 0 1920 1031" fill="none" xmlns="http://www.w3.org/2000/svg">
<path d="M1968.96 276.148V273.57H1490.67V-114H1487.49V273.57H1352.51V-114H1349.33V273.57H1214.36V-114H1211.18V273.57H1076.21V-114H1073.03V273.57H938.055V-114H934.874V273.57H799.901V-114H796.72V273.57H661.748V-114H658.567V273.57H523.595V-114H520.414V273.57H385.442V-114H382.261V273.57H-96V276.148H382.293V385.519H-96V388.097H382.293V497.467H-96V500.045H382.293V609.416H-96V611.993H382.293V721.364H-96V723.942H382.293V833.312H-96V835.89H382.293V945.261H-96V947.839H382.293V1057.21H-96V1059.79H382.293V1169.16H-96V1171.74H382.293V1559.31H385.474V1171.74H520.446V1559.31H523.627V1171.74H658.599V1559.31H661.78V1171.74H796.752V1559.31H799.933V1171.74H934.905V1559.31H938.086V1171.74H1073.06V1559.31H1076.24V1171.74H1211.21V1559.31H1214.39V1171.74H1349.36V1559.31H1352.55V1171.74H1487.52V1559.31H1490.7V1171.74H1968.99V1169.16H1490.7V1059.79H1968.99V1057.21H1490.7V947.839H1968.99V945.261H1490.7V835.89H1968.99V833.312H1490.7V723.942H1968.99V721.364H1490.7V611.993H1968.99V609.416H1490.7V500.045H1968.99V497.467H1490.7V388.097H1968.99V385.519H1490.7V276.148H1968.99H1968.96ZM1349.33 276.148V385.519H1214.36V276.148H1349.33ZM934.884 723.924V833.295H799.912V723.924H934.884ZM799.912 721.347V611.976H934.884V721.347H799.912ZM938.065 723.924H1073.04V833.295H938.065V723.924ZM938.065 721.347V611.976H1073.04V721.347H938.065ZM938.065 609.398V500.028H1073.04V609.398H938.065ZM934.884 609.398H799.912V500.028H934.884V609.398ZM796.731 609.398H661.759V500.028H796.731V609.398ZM796.731 611.976V721.347H661.759V611.976H796.731ZM796.731 723.924V833.295H661.759V723.924H796.731ZM796.731 835.873V945.244H661.759V835.873H796.731ZM799.912 835.873H934.884V945.244H799.912V835.873ZM938.065 835.873H1073.04V945.244H938.065V835.873ZM1076.22 835.873H1211.19V945.244H1076.22V835.873ZM1076.22 833.295V723.924H1211.19V833.295H1076.22ZM1076.22 721.347V611.976H1211.19V721.347H1076.22ZM1076.22 609.398V500.028H1211.19V609.398H1076.22ZM1076.22 497.45V388.079H1211.19V497.45H1076.22ZM1073.04 497.45H938.065V388.079H1073.04V497.45ZM934.884 497.45H799.912V388.079H934.884V497.45ZM796.731 497.45H661.759V388.079H796.731V497.45ZM658.578 497.45H523.606V388.079H658.578V497.45ZM658.578 500.028V609.398H523.606V500.028H658.578ZM658.578 611.976V721.347H523.606V611.976H658.578ZM658.578 723.924V833.295H523.606V723.924H658.578ZM658.578 835.873V945.244H523.606V835.873H658.578ZM658.578 947.821V1057.19H523.606V947.821H658.578ZM661.759 947.821H796.731V1057.19H661.759V947.821ZM799.912 947.821H934.884V1057.19H799.912V947.821ZM938.065 947.821H1073.04V1057.19H938.065V947.821ZM1076.22 947.821H1211.19V1057.19H1076.22V947.821ZM1214.37 947.821H1349.34V1057.19H1214.37V947.821ZM1214.37 945.244V835.873H1349.34V945.244H1214.37ZM1214.37 833.295V723.924H1349.34V833.295H1214.37ZM1214.37 721.347V611.976H1349.34V721.347H1214.37ZM1214.37 609.398V500.028H1349.34V609.398H1214.37ZM1214.37 497.45V388.079H1349.34V497.45H1214.37ZM1211.19 276.14V385.51H1076.22V276.14H1211.19ZM1073.04 276.14V385.51H938.065V276.14H1073.04ZM934.884 276.14V385.51H799.912V276.14H934.884ZM796.731 276.14V385.51H661.759V276.14H796.731ZM658.578 276.14V385.51H523.606V276.14H658.578ZM385.463 276.14H520.435V385.51H385.463V276.14ZM385.463 388.088H520.435V497.459H385.463V388.088ZM385.463 500.036H520.435V609.407H385.463V500.036ZM385.463 611.985H520.435V721.355H385.463V611.985ZM385.463 723.933H520.435V833.304H385.463V723.933ZM385.463 835.881H520.435V945.252H385.463V835.881ZM385.463 947.83H520.435V1057.2H385.463V947.83ZM385.463 1169.14V1059.77H520.435V1169.14H385.463ZM523.616 1169.14V1059.77H658.588V1169.14H523.616ZM661.769 1169.14V1059.77H796.742V1169.14H661.769ZM799.923 1169.14V1059.77H934.895V1169.14H799.923ZM938.076 1169.14V1059.77H1073.05V1169.14H938.076ZM1076.23 1169.14V1059.77H1211.2V1169.14H1076.23ZM1214.38 1169.14V1059.77H1349.35V1169.14H1214.38ZM1487.5 1169.14H1352.52V1059.77H1487.5V1169.14ZM1487.5 1057.19H1352.52V947.821H1487.5V1057.19ZM1487.5 945.244H1352.52V835.873H1487.5V945.244ZM1487.5 833.295H1352.52V723.924H1487.5V833.295ZM1487.5 721.347H1352.52V611.976H1487.5V721.347ZM1487.5 609.398H1352.52V500.028H1487.5V609.398ZM1487.5 497.45H1352.52V388.079H1487.5V497.45ZM1487.5 385.502H1352.52V276.131H1487.5V385.502Z" fill="url(#paint0_radial_2006_72)"/>
<defs>
<radialGradient id="paint0_radial_2006_72" cx="0" cy="0" r="1" gradientUnits="userSpaceOnUse" gradientTransform="translate(936.475 722.636) scale(1032.47 836.636)">
<stop stop-color="#24103B" stop-opacity="0"/>
<stop offset="0.06" stop-color="#2E1746" stop-opacity="0.06"/>
<stop offset="0.18" stop-color="#492B64" stop-opacity="0.21"/>
<stop offset="0.34" stop-color="#754C94" stop-opacity="0.46"/>
<stop offset="0.53" stop-color="#B178D5" stop-opacity="0.79"/>
<stop offset="0.65" stop-color="#D794FF"/>
<stop offset="0.71" stop-color="#A46EC7" stop-opacity="0.75"/>
<stop offset="0.77" stop-color="#774D96" stop-opacity="0.52"/>
<stop offset="0.82" stop-color="#51316D" stop-opacity="0.34"/>
<stop offset="0.87" stop-color="#341C4D" stop-opacity="0.19"/>
<stop offset="0.92" stop-color="#1F0C36" stop-opacity="0.09"/>
<stop offset="0.97" stop-color="#120328" stop-opacity="0.02"/>
<stop offset="1" stop-color="#0E0024" stop-opacity="0"/>
</radialGradient>
</defs>
</svg>
